<svg width="25" height="25" viewBox="0 0 25 25" fill="none" xmlns="http://www.w3.org/2000/svg">
<g clip-path="url(#clip0_336_2466)">
<path d="M23.0024 17.8316C25.3216 14.5777 24.9671 10.1196 21.7994 7.21569C20.352 5.88889 18.5069 5.06291 16.5137 4.83223C16.5013 4.81673 16.4883 4.80175 16.4747 4.78733C14.7407 2.98616 12.2496 1.95312 9.64006 1.95312C4.67417 1.95312 0.5 5.65311 0.5 10.3906C0.5 12.0516 1.01595 13.6439 1.99606 15.0191L0.626891 19.3178C0.584794 19.4499 0.582706 19.5916 0.620891 19.7249C0.659076 19.8582 0.735827 19.9772 0.841491 20.067C0.947156 20.1568 1.07701 20.2134 1.21473 20.2295C1.35245 20.2457 1.49188 20.2208 1.61548 20.158L5.77925 18.0408C6.63434 18.409 7.54109 18.6506 8.48009 18.7605C10.2914 20.6653 12.796 21.6406 15.3584 21.6406C16.6904 21.6406 18.0176 21.3692 19.2191 20.8532L23.383 22.9705C23.4817 23.0207 23.5908 23.0469 23.7015 23.0469C24.176 23.0469 24.5162 22.5845 24.3716 22.1303L23.0024 17.8316ZM6.06303 16.626C5.96588 16.5798 5.85945 16.5566 5.75191 16.5581C5.64437 16.5595 5.5386 16.5856 5.44273 16.6344L2.47709 18.1423L3.44553 15.1017C3.48027 14.9927 3.48786 14.8769 3.46766 14.7642C3.44746 14.6516 3.40007 14.5456 3.32961 14.4554C2.39839 13.2634 1.90616 11.8579 1.90616 10.3906C1.90616 6.51359 5.37556 3.35938 9.64006 3.35938C11.3574 3.35938 13.0106 3.87964 14.3517 4.81653C9.83534 5.27066 6.21837 8.79819 6.21837 13.2031C6.21837 14.5732 6.56956 15.8922 7.23167 17.0739C6.8312 16.9548 6.4405 16.8051 6.06303 16.626ZM19.5558 19.4468C19.4599 19.3981 19.3541 19.372 19.2466 19.3705C19.139 19.3691 19.0326 19.3923 18.9355 19.4385C17.8393 19.9592 16.6024 20.2344 15.3584 20.2344C11.0939 20.2344 7.62453 17.0802 7.62453 13.2031C7.62453 9.32609 11.0939 6.17188 15.3584 6.17188C19.6229 6.17188 23.0923 9.32609 23.0923 13.2031C23.0923 14.6704 22.6001 16.0759 21.6688 17.2679C21.5984 17.3581 21.551 17.4641 21.5308 17.5767C21.5106 17.6893 21.5182 17.8052 21.5529 17.9142L22.5214 20.9548L19.5558 19.4468Z" fill="#47280B" fill-opacity="0.3"/>
<path d="M12.4993 13.9062C12.8876 13.9062 13.2024 13.5915 13.2024 13.2031C13.2024 12.8148 12.8876 12.5 12.4993 12.5C12.1109 12.5 11.7961 12.8148 11.7961 13.2031C11.7961 13.5915 12.1109 13.9062 12.4993 13.9062Z" fill="#47280B" fill-opacity="0.3"/>
<path d="M15.3116 13.9062C15.6999 13.9062 16.0147 13.5915 16.0147 13.2031C16.0147 12.8148 15.6999 12.5 15.3116 12.5C14.9233 12.5 14.6085 12.8148 14.6085 13.2031C14.6085 13.5915 14.9233 13.9062 15.3116 13.9062Z" fill="#47280B" fill-opacity="0.3"/>
<path d="M18.1239 13.9062C18.5122 13.9062 18.827 13.5915 18.827 13.2031C18.827 12.8148 18.5122 12.5 18.1239 12.5C17.7356 12.5 17.4208 12.8148 17.4208 13.2031C17.4208 13.5915 17.7356 13.9062 18.1239 13.9062Z" fill="#47280B" fill-opacity="0.3"/>
</g>
<defs>
<clipPath id="clip0_336_2466">
<rect width="24" height="24" fill="white" transform="translate(0.5 0.5)"/>
</clipPath>
</defs>
</svg>
