<svg width="25" height="25" viewBox="0 0 25 25" fill="none" xmlns="http://www.w3.org/2000/svg">
<path fill-rule="evenodd" clip-rule="evenodd" d="M13.5 13.5V20.5C13.5 20.7652 13.3946 21.0196 13.2071 21.2071C13.0196 21.3946 12.7652 21.5 12.5 21.5C12.2348 21.5 11.9804 21.3946 11.7929 21.2071C11.6054 21.0196 11.5 20.7652 11.5 20.5V13.5H4.5C4.23478 13.5 3.98043 13.3946 3.79289 13.2071C3.60536 13.0196 3.5 12.7652 3.5 12.5C3.5 12.2348 3.60536 11.9804 3.79289 11.7929C3.98043 11.6054 4.23478 11.5 4.5 11.5H11.5V4.5C11.5 4.23478 11.6054 3.98043 11.7929 3.79289C11.9804 3.60536 12.2348 3.5 12.5 3.5C12.7652 3.5 13.0196 3.60536 13.2071 3.79289C13.3946 3.98043 13.5 4.23478 13.5 4.5V11.5H20.5C20.7652 11.5 21.0196 11.6054 21.2071 11.7929C21.3946 11.9804 21.5 12.2348 21.5 12.5C21.5 12.7652 21.3946 13.0196 21.2071 13.2071C21.0196 13.3946 20.7652 13.5 20.5 13.5H13.5Z" fill="#47280B" fill-opacity="0.3"/>
</svg>
