<svg width="19" height="20" viewBox="0 0 19 20" fill="none" xmlns="http://www.w3.org/2000/svg">
<path d="M9.49998 18.6539C9.22945 18.6539 8.96872 18.5559 8.76548 18.3779C7.99791 17.7067 7.25791 17.076 6.60501 16.5197L6.60167 16.5168C4.6875 14.8855 3.03454 13.4768 1.88445 12.0891C0.598833 10.5379 0 9.06692 0 7.46005C0 5.89886 0.535339 4.45853 1.50727 3.40426C2.49081 2.33751 3.84037 1.75 5.30778 1.75C6.40455 1.75 7.40895 2.09675 8.29308 2.78053C8.73924 3.12564 9.14366 3.54806 9.49998 4.04076C9.85642 3.54806 10.2607 3.12564 10.707 2.78053C11.5912 2.09675 12.5956 1.75 13.6923 1.75C15.1596 1.75 16.5093 2.33751 17.4928 3.40426C18.4648 4.45853 19 5.89886 19 7.46005C19 9.06688 18.4013 10.5378 17.1157 12.089C15.9655 13.4768 14.3127 14.8854 12.3988 16.5165C11.7448 17.0737 11.0036 17.7054 10.2343 18.3782C10.031 18.556 9.77008 18.654 9.49998 18.6539ZM5.30778 2.86298C4.15494 2.86298 3.09588 3.3231 2.32542 4.15862C1.54352 5.00679 1.11283 6.17922 1.11283 7.46005C1.11283 8.81149 1.61511 10.0201 2.7413 11.379C3.82979 12.6925 5.44883 14.0722 7.32345 15.6698L7.3269 15.6727C7.98225 16.2312 8.72518 16.8644 9.49839 17.5405C10.2762 16.8631 11.0203 16.2289 11.677 15.6695C13.5514 14.0719 15.1703 12.6925 16.2588 11.379C17.3849 10.0201 17.8871 8.81149 17.8871 7.46005C17.8871 6.17918 17.4564 5.00675 16.6745 4.15862C15.9042 3.3231 14.8451 2.86298 13.6923 2.86298C12.8478 2.86298 12.0724 3.13147 11.3878 3.66083C10.7777 4.13283 10.3526 4.72947 10.1034 5.14695C9.97531 5.36163 9.74976 5.48976 9.49998 5.48976C9.2502 5.48976 9.02465 5.36163 8.89651 5.14695C8.64751 4.72947 8.22246 4.13283 7.61216 3.66083C6.92756 3.13147 6.15217 2.86298 5.30778 2.86298Z" fill="#592B00"/>
</svg>
